<svg xmlns="http://www.w3.org/2000/svg" viewBox="0 0 32 32" width="32" height="32">
  <!-- Markhor head silhouette -->
  <path d="M16 4c-3 0-5.5 1.5-7 3.5-0.8 1.1-1.2 2.3-1 3.5 0.1 0.8 0.4 1.5 0.8 2.1-0.3 0.4-0.5 0.9-0.5 1.4 0 1.1 0.9 2 2 2 0.2 0 0.4 0 0.6-0.1 0.8 1.2 2.1 2.1 3.6 2.4-0.2 0.3-0.3 0.7-0.3 1.1 0 1.1 0.9 2 2 2s2-0.9 2-2c0-0.4-0.1-0.8-0.3-1.1 1.5-0.3 2.8-1.2 3.6-2.4 0.2 0.1 0.4 0.1 0.6 0.1 1.1 0 2-0.9 2-2 0-0.5-0.2-1-0.5-1.4 0.4-0.6 0.7-1.3 0.8-2.1 0.2-1.2-0.2-2.4-1-3.5C21.5 5.5 19 4 16 4z" fill="#e2e8f0"/>
  
  <!-- Iconic curved horns -->
  <path d="M12 6c-0.5-0.8-1.2-1.5-2-1.8-0.3-0.1-0.6 0-0.7 0.3-0.1 0.3 0 0.6 0.3 0.7 0.5 0.2 0.9 0.6 1.2 1.1C11.2 6.1 11.6 6 12 6z" fill="#cbd5e0"/>
  <path d="M20 6c0.4 0 0.8 0.1 1.2 0.3 0.3-0.5 0.7-0.9 1.2-1.1 0.3-0.1 0.4-0.4 0.3-0.7-0.1-0.3-0.4-0.4-0.7-0.3-0.8 0.3-1.5 1-2 1.8z" fill="#cbd5e0"/>
  
  <!-- Spiral horn details -->
  <circle cx="11" cy="7" r="1" fill="#a0aec0"/>
  <circle cx="21" cy="7" r="1" fill="#a0aec0"/>
  
  <!-- Eyes -->
  <circle cx="13" cy="10" r="1" fill="#2d3748"/>
  <circle cx="19" cy="10" r="1" fill="#2d3748"/>
  
  <!-- Nose/muzzle -->
  <ellipse cx="16" cy="13" rx="1.5" ry="1" fill="#a0aec0"/>
  
  <!-- Beard detail -->
  <path d="M16 15c-0.5 0-1 0.2-1.3 0.5-0.2 0.2-0.2 0.5 0 0.7s0.5 0.2 0.7 0l0.6-0.6 0.6 0.6c0.2 0.2 0.5 0.2 0.7 0s0.2-0.5 0-0.7C17 15.2 16.5 15 16 15z" fill="#cbd5e0"/>
</svg>